<svg width="28" height="28" viewBox="0 0 28 28" fill="none" xmlns="http://www.w3.org/2000/svg">
<circle cx="14" cy="14" r="14" fill="#1DA1F2"/>
<path d="M21 10.5C20.4 10.8 19.8 11 19.1 11.1C19.8 10.7 20.3 10.1 20.5 9.3C19.9 9.7 19.2 10 18.4 10.2C17.8 9.6 16.9 9.5 16.1 9.9C15.3 10.3 14.8 11.1 15 11.9C13.4 11.8 11.9 11.1 10.8 10C10.3 10.8 10.5 11.8 11.3 12.3C10.8 12.3 10.3 12.2 9.9 12C10 13 10.8 13.7 11.8 13.7C11.2 14.3 10.3 14.5 9.5 14.3C10.3 15 11.3 15.4 12.3 15.4C16.1 15.4 18.2 12.1 18.2 9.6C18.2 9.5 18.2 9.4 18.2 9.3C18.8 8.9 19.3 8.4 19.7 7.8C19.2 8.1 18.7 8.3 18.1 8.4C18.7 8.1 19.2 7.8 19.7 7.8Z" fill="white"/>
</svg>